# xmcd
#
# Track frame offsets:
# 150
# 15942
# 33520
# 53870
# 72046
# 106289
#
# Disc length: 1868 seconds
#
# Revision: 1
# Processed by: cddbd v1.5.2PL0 Copyright (c) Steve Scherf et al.
# Submitted via: CedeCatalogueitor 2.6.0.6 http://personales.ya.com/cdcatalogueitor
#
DISCID=41074a06
DTITLE=Reverend And The Makers - Rmx
DYEAR=1900
DGENRE=
TTITLE0=Sundown On The Empire (Adrian Sherwood On U Sound Remix)
TTITLE1=18-30 (Elektrons Data Transfer Edit)
TTITLE2=The Machine (Infadels Rmx)
TTITLE3=Sundonw On The Empire (Adrian Sherwood On Un Sound)
TTITLE4=18-30 (Unabombers Basemente Rmx)
TTITLE5=1830 (Electrons Data Transfer Rmx)
EXTD=
EXTT0=
EXTT1=
EXTT2=
EXTT3=
EXTT4=
EXTT5=
PLAYORDER=
